<svg width="24" height="24" viewBox="0 0 24 24" fill="none" xmlns="http://www.w3.org/2000/svg">
<path d="M17.3766 0H6.62295C2.97106 0 0 2.9712 0 6.62309V17.3768C0 21.0288 2.97106 23.9999 6.62295 23.9999H17.3766C21.0288 23.9999 23.9999 21.0287 23.9999 17.3768V6.62309C24 2.9712 21.0288 0 17.3766 0ZM21.8706 17.3768C21.8706 19.8547 19.8547 21.8705 17.3768 21.8705H6.62295C4.1452 21.8706 2.12938 19.8547 2.12938 17.3768V6.62309C2.12938 4.14534 4.1452 2.12938 6.62295 2.12938H17.3766C19.8545 2.12938 21.8705 4.14534 21.8705 6.62309V17.3768H21.8706Z" fill="black"/>
<path d="M12.0006 5.81592C8.59057 5.81592 5.81641 8.59008 5.81641 12.0001C5.81641 15.4099 8.59057 18.1839 12.0006 18.1839C15.4106 18.1839 18.1847 15.4099 18.1847 12.0001C18.1847 8.59008 15.4106 5.81592 12.0006 5.81592ZM12.0006 16.0544C9.76485 16.0544 7.94579 14.2356 7.94579 11.9999C7.94579 9.76408 9.76471 7.94516 12.0006 7.94516C14.2364 7.94516 16.0553 9.76408 16.0553 11.9999C16.0553 14.2356 14.2363 16.0544 12.0006 16.0544Z" fill="black"/>
<path d="M18.4444 4.0105C18.0341 4.0105 17.6311 4.17659 17.3413 4.46761C17.0502 4.7572 16.8828 5.16037 16.8828 5.57205C16.8828 5.98245 17.0503 6.38547 17.3413 6.67649C17.6309 6.96608 18.0341 7.13359 18.4444 7.13359C18.856 7.13359 19.2578 6.96608 19.5488 6.67649C19.8398 6.38547 20.0059 5.98231 20.0059 5.57205C20.0059 5.16037 19.8398 4.7572 19.5488 4.46761C19.2592 4.17659 18.856 4.0105 18.4444 4.0105Z" fill="black"/>
</svg>
