<svg width="27" height="20" viewBox="0 0 27 20" fill="none" xmlns="http://www.w3.org/2000/svg">
<path d="M13.499 19.6872C13.4968 19.6872 13.4943 19.6872 13.4918 19.6872C12.6771 19.6817 5.47474 19.6168 3.43417 19.0718C2.00808 18.6931 0.882322 17.5825 0.497938 16.1738C-0.0359975 14.194 -0.00200858 10.3824 0.00169931 10.078C-0.00180258 9.77508 -0.0362035 5.93189 0.49629 3.93584C0.496908 3.93401 0.49732 3.93197 0.497938 3.93014C0.877996 2.53752 2.02909 1.3925 3.43067 1.01286C3.43417 1.01184 3.43788 1.01103 3.44138 1.01001C5.45888 0.486328 12.6755 0.422241 13.4918 0.416748H13.5064C14.3232 0.422241 21.5447 0.487142 23.5665 1.033C24.9889 1.41061 26.1139 2.51982 26.4993 3.92668C27.0532 5.92416 27.0019 9.77569 26.9963 10.1008C27.0003 10.421 27.0326 14.1985 26.5017 16.1883C26.5013 16.1903 26.5007 16.1921 26.5003 16.194C26.1157 17.6027 24.9902 18.7133 23.5624 19.0923C23.5606 19.0929 23.5585 19.0933 23.5567 19.0939C21.5394 19.6174 14.3226 19.6815 13.5064 19.6872C13.504 19.6872 13.5015 19.6872 13.499 19.6872ZM2.53521 4.4701C2.06637 6.23198 2.11066 10.0261 2.11107 10.0644V10.0919C2.09707 11.1441 2.1463 14.1914 2.53542 15.6347C2.72411 16.3258 3.27926 16.8733 3.98335 17.0603C5.48896 17.4625 11.355 17.589 13.499 17.6039C15.6486 17.589 21.5233 17.4659 23.0178 17.0798C23.7196 16.8922 24.2729 16.3465 24.4628 15.6546C24.8524 14.1902 24.9012 11.1577 24.887 10.1122C24.887 10.1012 24.887 10.0902 24.8872 10.0792C24.9065 9.01438 24.8684 5.93149 24.4647 4.47661C24.4643 4.47519 24.4639 4.47376 24.4636 4.47234C24.2741 3.77816 23.7188 3.23068 23.0147 3.04371C21.5237 2.64108 15.6482 2.51494 13.499 2.50009C11.3509 2.51494 5.48195 2.63782 3.98294 3.02356C3.29224 3.21277 2.72452 3.77979 2.53521 4.4701ZM25.4819 15.923H25.4825H25.4819ZM10.8106 14.2705V5.83322L18.1934 10.052L10.8106 14.2705Z" fill="black"/>
</svg>
